<svg xmlns="http://www.w3.org/2000/svg" xmlns:xlink="http://www.w3.org/1999/xlink" width="40" zoomAndPan="magnify" viewBox="0 0 30 30.000001" height="40" preserveAspectRatio="xMidYMid meet" version="1.0"><defs><g/><clipPath id="f69a3868eb"><path d="M 0.484375 0 L 29.515625 0 L 29.515625 29.03125 L 0.484375 29.03125 Z M 0.484375 0 " clip-rule="nonzero"/></clipPath></defs><g clip-path="url(#f69a3868eb)"><path fill="#000000" d="M 7.671875 0 L 22.328125 0 C 22.796875 0 23.265625 0.046875 23.730469 0.136719 C 24.191406 0.230469 24.640625 0.367188 25.078125 0.546875 C 25.515625 0.726562 25.929688 0.949219 26.320312 1.210938 C 26.714844 1.472656 27.078125 1.773438 27.410156 2.105469 C 27.742188 2.441406 28.042969 2.804688 28.304688 3.195312 C 28.566406 3.585938 28.789062 4.003906 28.96875 4.4375 C 29.148438 4.875 29.285156 5.324219 29.378906 5.785156 C 29.46875 6.25 29.515625 6.71875 29.515625 7.191406 L 29.515625 21.84375 C 29.515625 22.316406 29.46875 22.78125 29.378906 23.246094 C 29.285156 23.707031 29.148438 24.15625 28.96875 24.59375 C 28.789062 25.03125 28.566406 25.445312 28.304688 25.835938 C 28.042969 26.230469 27.742188 26.59375 27.410156 26.925781 C 27.078125 27.261719 26.714844 27.558594 26.320312 27.820312 C 25.929688 28.082031 25.515625 28.304688 25.078125 28.484375 C 24.640625 28.664062 24.191406 28.800781 23.730469 28.894531 C 23.265625 28.984375 22.796875 29.03125 22.328125 29.03125 L 7.671875 29.03125 C 7.203125 29.03125 6.734375 28.984375 6.269531 28.894531 C 5.808594 28.800781 5.359375 28.664062 4.921875 28.484375 C 4.484375 28.304688 4.070312 28.082031 3.679688 27.820312 C 3.285156 27.558594 2.921875 27.261719 2.589844 26.925781 C 2.257812 26.59375 1.957031 26.230469 1.695312 25.835938 C 1.433594 25.445312 1.210938 25.03125 1.03125 24.59375 C 0.851562 24.15625 0.714844 23.707031 0.621094 23.246094 C 0.53125 22.78125 0.484375 22.316406 0.484375 21.84375 L 0.484375 7.191406 C 0.484375 6.71875 0.53125 6.25 0.621094 5.785156 C 0.714844 5.324219 0.851562 4.875 1.03125 4.4375 C 1.210938 4.003906 1.433594 3.585938 1.695312 3.195312 C 1.957031 2.804688 2.257812 2.441406 2.589844 2.105469 C 2.921875 1.773438 3.285156 1.472656 3.679688 1.210938 C 4.070312 0.949219 4.484375 0.726562 4.921875 0.546875 C 5.359375 0.367188 5.808594 0.230469 6.269531 0.136719 C 6.734375 0.046875 7.203125 0 7.671875 0 Z M 7.671875 0 " fill-opacity="1" fill-rule="nonzero"/></g><g fill="#ffffff" fill-opacity="1"><g transform="translate(2.853872, 21.670015)"><g><path d="M 5.875 -12.0625 C 5.507812 -12.0625 5.195312 -11.945312 4.9375 -11.71875 C 4.675781 -11.488281 4.546875 -11.210938 4.546875 -10.890625 C 4.546875 -10.472656 4.722656 -10.132812 5.078125 -9.875 C 5.429688 -9.613281 6.070312 -9.285156 7 -8.890625 C 8.09375 -8.410156 8.9375 -7.945312 9.53125 -7.5 C 10.125 -7.0625 10.535156 -6.59375 10.765625 -6.09375 C 11.003906 -5.59375 11.125 -5 11.125 -4.3125 C 11.125 -2.863281 10.660156 -1.734375 9.734375 -0.921875 C 8.804688 -0.117188 7.53125 0.28125 5.90625 0.28125 C 4.25 0.28125 2.929688 -0.140625 1.953125 -0.984375 C 0.984375 -1.835938 0.5 -3.054688 0.5 -4.640625 L 0.5 -4.953125 L 4.3125 -4.953125 C 4.320312 -4.335938 4.46875 -3.84375 4.75 -3.46875 C 5.039062 -3.09375 5.421875 -2.90625 5.890625 -2.90625 C 6.273438 -2.90625 6.609375 -3.046875 6.890625 -3.328125 C 7.179688 -3.609375 7.328125 -3.945312 7.328125 -4.34375 C 7.328125 -4.820312 7.097656 -5.210938 6.640625 -5.515625 C 6.191406 -5.816406 5.550781 -6.128906 4.71875 -6.453125 C 4.664062 -6.484375 4.597656 -6.507812 4.515625 -6.53125 C 4.441406 -6.550781 4.375 -6.578125 4.3125 -6.609375 C 3.082031 -7.109375 2.179688 -7.695312 1.609375 -8.375 C 1.035156 -9.050781 0.75 -9.875 0.75 -10.84375 C 0.75 -11.664062 0.988281 -12.414062 1.46875 -13.09375 C 1.945312 -13.769531 2.585938 -14.296875 3.390625 -14.671875 C 4.191406 -15.054688 5.050781 -15.25 5.96875 -15.25 C 6.925781 -15.25 7.8125 -15.039062 8.625 -14.625 C 9.425781 -14.207031 10.019531 -13.675781 10.40625 -13.03125 C 10.789062 -12.394531 10.988281 -11.585938 11 -10.609375 L 7.21875 -10.609375 C 7.144531 -11.128906 7 -11.5 6.78125 -11.71875 C 6.5625 -11.945312 6.257812 -12.0625 5.875 -12.0625 Z M 5.875 -12.0625 "/></g></g></g><g fill="#ffffff" fill-opacity="1"><g transform="translate(14.047138, 21.670015)"><g><path d="M 6.15625 -14.96875 C 7.21875 -14.96875 8.007812 -14.910156 8.53125 -14.796875 C 9.4375 -14.585938 10.179688 -14.15625 10.765625 -13.5 C 11.359375 -12.851562 11.65625 -12.039062 11.65625 -11.0625 C 11.65625 -10.414062 11.503906 -9.828125 11.203125 -9.296875 C 10.898438 -8.765625 10.472656 -8.34375 9.921875 -8.03125 C 10.742188 -7.75 11.359375 -7.3125 11.765625 -6.71875 C 12.179688 -6.132812 12.390625 -5.410156 12.390625 -4.546875 C 12.390625 -3.816406 12.234375 -3.140625 11.921875 -2.515625 C 11.617188 -1.898438 11.191406 -1.398438 10.640625 -1.015625 C 10.046875 -0.597656 9.472656 -0.320312 8.921875 -0.1875 C 8.378906 -0.0625 7.515625 0 6.328125 0 L 1.359375 0 L 1.359375 -14.96875 Z M 8 -10.484375 C 8 -10.867188 7.878906 -11.148438 7.640625 -11.328125 C 7.398438 -11.515625 7.039062 -11.609375 6.5625 -11.609375 L 5.015625 -11.609375 L 5.015625 -9.28125 L 6.53125 -9.28125 C 7.507812 -9.28125 8 -9.679688 8 -10.484375 Z M 8.71875 -4.796875 C 8.71875 -5.660156 8.144531 -6.09375 7 -6.09375 L 5.015625 -6.09375 L 5.015625 -3.359375 L 6.984375 -3.359375 C 7.535156 -3.359375 7.960938 -3.476562 8.265625 -3.71875 C 8.566406 -3.96875 8.71875 -4.328125 8.71875 -4.796875 Z M 8.71875 -4.796875 "/></g></g></g></svg>